PathFileType	4	(X/Y/Z)	C:\Users\dbl\Desktop\20210112\20210112\bx_n_0_501-Unnamed.trc
DataRate	CameraRate	NumFrames	NumMarkers	Units	OrigDataRate	OrigDataStartFrame	OrigNumFrames
50.00	50.00	       14	0	mm	50.00	255	       339
Frame#	Time	
		

255	5.080				-708.04156	265.18863	745.77704							-706.96368	277.54202	877.03003	-754.31207	-25.50745	206.32741	-664.35999	15.43642	520.19598													-547.11316	212.61604	165.27527				-678.57831	155.65388	158.96306							-795.79602	181.58282	183.89932	-761.59637	225.40547	204.85600	-589.05914	184.26308	174.34651	-882.79706	296.06219	144.43631	-733.61078	243.36813	576.22931	-640.47601	274.09445	159.69695	-602.11407	274.34140	159.81624	-528.13666	304.30460	146.43042										-699.09375	70.20418	577.10950	-795.07343	31.09207	174.15253				-876.12219	-78.89765	141.41621				-723.08527	68.37581	217.32716							-718.51910	143.82802	218.71883													-517.98566	-73.08208	143.18445	
256	5.100				-707.09778	264.42700	745.58344							-705.89435	277.52957	877.01807	-754.24829	-25.34392	206.48471	-663.57971	15.46182	520.01074													-547.14368	212.62538	165.23277				-678.57831	155.65388	158.96306							-795.88904	181.23613	183.79938	-761.57745	225.21262	205.06110	-589.09052	184.18900	174.29457	-882.77734	296.19269	144.57732	-733.08771	243.17903	576.39825	-640.57123	274.15363	159.66402	-602.11407	274.34140	159.81624	-528.30585	304.11691	146.33821										-698.96777	70.12059	577.19342	-794.85376	31.12932	173.99098				-876.12219	-78.89765	141.41621				-722.83148	68.49257	217.09428							-718.80548	143.95573	218.61267													-517.94177	-72.92817	143.09164	
257	5.120				-706.02179	264.51352	745.88123							-704.64642	277.67981	877.32050	-754.12311	-25.50210	206.45229	-662.66553	15.46504	520.01648													-547.02551	212.71045	165.14894				-678.57831	155.65388	158.96306							-795.86700	181.28844	183.76723	-761.54150	225.07620	205.17941	-588.97632	184.19746	174.40614	-882.79706	296.06219	144.43631	-732.65527	242.87968	576.50250	-640.36359	274.14386	159.76192	-602.03192	274.21732	159.82158	-528.22577	304.11572	146.48291										-697.90717	70.01571	577.16199	-794.80383	31.09204	174.07031				-876.14905	-78.79788	141.54057				-722.85608	68.42014	217.17923							-718.85297	143.82181	218.67142													-517.99066	-73.04592	143.03880	
258	5.140				-705.24323	264.78104	745.77454							-703.77728	277.06934	876.94360	-754.12311	-25.50210	206.45229	-662.10394	15.37843	520.10321													-546.93951	212.69362	165.35367				-678.57831	155.65388	158.96306							-795.96417	181.18420	184.02776	-761.71094	224.97188	205.15234	-589.01080	184.11578	174.24986	-882.59625	296.22037	144.63243	-732.37805	242.43721	576.35803	-640.33264	273.89243	160.01131	-601.94977	274.32523	159.78456	-528.21887	304.07733	146.44493										-697.28247	70.18027	577.04578	-795.25128	31.03659	174.49747				-876.12219	-78.89765	141.41621				-722.53143	68.54853	217.21458							-718.90619	143.75192	218.35730													-517.98566	-73.08208	143.18445	
259	5.160				-704.46838	264.58582	746.06567							-702.72803	276.61536	876.76398	-753.77124	-25.41859	206.16074	-661.48340	15.56037	519.74567													-546.91083	212.56358	165.24448				-678.58093	155.55977	158.89647							-795.85510	181.12285	184.12167	-761.65729	224.66626	205.00844	-589.01080	184.11578	174.24986	-882.54767	296.21411	144.67567	-731.90668	242.42641	576.56189	-640.37286	274.06317	159.81787	-601.93188	274.38766	159.78987	-528.04968	304.26501	146.53712										-696.61011	70.02074	577.07587	-795.30945	31.09633	174.44389				-876.12219	-78.89765	141.41621				-722.53143	68.54853	217.21458							-719.10944	143.71390	218.29648													-518.05658	-73.11768	143.04790	
260	5.180				-703.70721	263.96567	745.62598							-701.66632	276.45529	876.73230	-753.89642	-25.26040	206.19316	-661.13165	15.35292	519.63245													-546.86005	212.48215	165.25281				-678.58093	155.55977	158.89647							-795.87347	181.02924	184.21869	-761.60449	224.66248	205.07867	-589.06305	184.01648	174.24928	-882.52899	296.14771	144.63293	-731.23242	242.04184	576.53229	-640.43927	273.97528	160.00137	-601.96576	274.29291	159.68182	-528.29083	304.32431	146.31367										-696.31213	69.62101	577.19958	-795.25128	31.03659	174.49747				-876.12219	-78.89765	141.41621				-722.54211	68.62914	217.15692							-720.13519	143.74539	217.21103													-517.90387	-72.95454	143.08153	
261	5.200				-702.88080	263.66208	745.66473							-701.05048	276.07999	876.70111	-753.57257	-25.44989	206.32666	-660.65088	15.50804	519.48999													-547.17584	212.93945	165.16847				-678.58374	155.46574	158.82974							-795.87262	181.15749	184.12366	-761.39270	224.44376	205.03145	-589.01080	184.11578	174.24986	-882.56165	296.02393	144.54869	-730.46906	242.12128	576.69910	-640.47601	274.09445	159.69695	-601.97223	274.28088	159.80074	-528.31311	304.26779	146.47623										-695.75079	69.64008	577.17102	-795.29340	31.10822	174.56349				-876.14905	-78.79788	141.54057				-722.32397	68.44962	216.43869							-720.17389	143.81818	217.24054													-518.06946	-73.11642	143.21059	
262	5.220				-702.08545	263.17508	745.69537							-700.03668	275.71982	876.64294	-753.69775	-25.29170	206.35909	-660.03143	15.11530	518.95496													-547.09717	212.82037	165.25166				-678.41302	155.36540	158.69283							-795.87347	181.02924	184.21869	-761.55975	224.48615	205.04167	-588.97418	184.08946	174.17584	-882.63263	296.08612	144.57532	-730.16064	241.77470	576.66846	-640.36304	274.13181	159.71603	-601.72485	274.15710	159.77962	-528.29248	303.97745	146.42059										-695.13135	69.19643	576.93188	-795.25128	31.03659	174.49747				-876.14905	-78.79788	141.54057				-722.19171	68.52246	216.57503							-720.32458	143.73778	217.32761													-517.91980	-73.01032	143.17534	
263	5.240				-701.67590	263.09695	745.92670							-698.96655	275.28082	876.72955	-753.89642	-25.26040	206.19316	-659.85571	14.89955	519.04193													-547.17584	212.93945	165.16847				-678.63074	155.50163	158.35243							-795.80872	180.79315	184.19031	-761.44427	224.32370	205.10789	-588.88690	184.02840	174.22241	-882.60748	295.91049	144.46005	-729.75891	241.47401	576.54230	-640.43927	273.97528	160.00137	-601.89655	274.21802	159.73445	-528.27087	304.22754	146.42125										-694.78009	68.73099	576.90277	-794.77039	30.79703	174.33466				-876.14905	-78.79788	141.54057				-722.50751	68.50063	216.76216							-720.21313	143.62024	217.23750													-518.00769	-72.99992	143.10075	
264	5.260				-700.64667	262.36606	745.62146							-698.50604	275.12329	876.86395	-753.69775	-25.29170	206.35909	-659.75635	14.78436	519.29535													-547.17584	212.93945	165.16847				-678.41302	155.36540	158.69283							-795.81171	180.80907	184.31709	-761.37854	224.42178	205.23779	-588.84711	184.03009	174.24913	-882.69727	296.06870	144.54311	-729.10474	241.14359	576.49872	-640.37683	274.00241	159.93007	-601.80621	274.27426	159.78223	-528.15259	304.21826	146.59427										-694.47754	68.48602	577.17596	-794.72949	30.73315	174.34010				-876.12219	-78.89765	141.41621				-722.53143	68.54853	217.21458							-720.01764	143.36923	217.24629													-517.91980	-73.01032	143.17534	
265	5.280				-699.58606	262.27707	745.89844							-697.51862	274.94675	876.88306	-753.89642	-25.26040	206.19316	-659.70349	14.48333	519.16687													-547.07483	212.81253	165.22391				-678.41577	155.27141	158.62607							-795.66241	180.70251	184.31499	-761.48676	224.16641	205.69348	-588.93103	184.13771	174.16203	-882.72510	296.13089	144.72926	-728.39893	240.69939	576.60901	-640.37683	274.00241	159.93007	-601.70551	274.27869	159.76160	-528.17169	303.90823	146.23738										-694.52490	68.19029	576.99506	-794.70990	30.57902	174.43536				-876.12219	-78.89765	141.41621				-722.55066	68.39518	216.92261							-719.95837	143.47723	217.08015													-517.90387	-72.95454	143.08153	
266	5.300				-699.02991	262.16745	746.11249							-696.45807	274.45132	876.61359	-753.89642	-25.26040	206.19316	-659.45538	14.25694	519.13379													-546.97864	212.88000	165.10072				-678.41577	155.27141	158.62607							-795.80524	180.73798	184.51595	-761.12921	224.17462	205.45699	-588.92163	183.90778	174.21098	-882.67108	296.04764	144.50079	-727.65735	240.71408	576.84912	-640.37683	274.00241	159.93007	-601.80621	274.27426	159.78223	-528.20984	304.20206	146.31906										-694.71014	67.72626	576.90466	-794.56372	30.65780	174.27634				-876.12219	-78.89765	141.41621				-722.85608	68.42014	217.17923							-719.82806	143.23499	217.37115													-517.89740	-73.12668	143.03516	
267	5.320				-698.48535	261.80508	746.18176							-695.58887	274.04282	876.90405	-753.77124	-25.41859	206.16074	-659.14984	13.67938	518.67615													-546.88043	212.75438	165.16853				-678.41577	155.27141	158.62607							-795.69067	180.77701	184.62726	-761.12811	223.97981	205.38716	-588.94391	183.97989	174.13029	-882.72070	295.94644	144.52759	-727.24420	240.53239	576.94025	-640.37683	274.00241	159.93007	-601.88196	274.33716	159.84851	-528.22577	304.11572	146.48291										-694.22284	67.04520	577.08221	-795.25128	31.03659	174.49747				-876.03900	-78.89625	141.35916				-722.50708	68.42056	216.80598							-719.72571	143.18300	217.45103													-517.78845	-73.07753	143.08647	
268	5.340				-697.43518	261.05707	745.59918							-695.03113	273.93915	876.72009	-753.77124	-25.41859	206.16074	-659.08673	13.46867	518.67059													-546.87433	212.97536	165.10495				-678.41577	155.27141	158.62607							-795.52289	180.65977	184.53349	-761.18091	224.07497	205.43092	-588.80286	183.54115	173.92952	-882.57355	295.99719	144.45621	-726.49933	240.23645	576.91248	-640.31628	273.87640	159.99966	-601.59113	274.31216	159.93633	-528.30359	304.16559	146.43268										-694.06866	66.64346	577.23340	-795.22583	30.84970	174.56572				-876.14905	-78.79788	141.54057				-722.67395	68.47625	217.06442							-719.66412	143.08035	217.39191													-517.96869	-73.12807	143.12250	
